<svg width="1200" height="760" viewBox="0 0 1200 760" fill="none" xmlns="http://www.w3.org/2000/svg">
  <rect width="1200" height="760" rx="40" fill="#F8FBFF"/>
  <rect x="54" y="54" width="1092" height="652" rx="30" fill="#FFFFFF" stroke="#D6E7FA" stroke-width="2"/>
  <rect x="100" y="110" width="472" height="540" rx="28" fill="#0F172A"/>
  <rect x="146" y="156" width="132" height="14" rx="7" fill="#DDF0FF"/>
  <rect x="146" y="196" width="380" height="96" rx="22" fill="#172554"/>
  <circle cx="192" cy="244" r="24" fill="#22C55E"/>
  <path d="M181 244L189 252L205 236" stroke="white" stroke-width="5" stroke-linecap="round" stroke-linejoin="round"/>
  <rect x="232" y="222" width="146" height="12" rx="6" fill="#FFFFFF"/>
  <rect x="232" y="248" width="240" height="10" rx="5" fill="#9BC8FF"/>
  <rect x="146" y="322" width="380" height="96" rx="22" fill="#172554"/>
  <circle cx="192" cy="370" r="24" fill="#F97316"/>
  <path d="M192 356V372" stroke="white" stroke-width="5" stroke-linecap="round"/>
  <circle cx="192" cy="385" r="3.5" fill="white"/>
  <rect x="232" y="348" width="166" height="12" rx="6" fill="#FFFFFF"/>
  <rect x="232" y="374" width="224" height="10" rx="5" fill="#9BC8FF"/>
  <rect x="146" y="448" width="380" height="142" rx="22" fill="#14213D"/>
  <rect x="178" y="482" width="96" height="10" rx="5" fill="#BFDFFF"/>
  <rect x="178" y="510" width="306" height="12" rx="6" fill="#FFFFFF"/>
  <rect x="178" y="540" width="250" height="10" rx="5" fill="#9BC8FF"/>
  <rect x="628" y="110" width="472" height="540" rx="28" fill="#FDFEFF" stroke="#D6E7FA" stroke-width="2"/>
  <rect x="670" y="156" width="138" height="14" rx="7" fill="#475569"/>
  <rect x="670" y="198" width="388" height="54" rx="18" fill="#EFF6FF"/>
  <rect x="694" y="218" width="130" height="14" rx="7" fill="#0F172A"/>
  <rect x="952" y="216" width="82" height="18" rx="9" fill="#2563EB"/>
  <rect x="670" y="272" width="388" height="54" rx="18" fill="#F8FAFC"/>
  <rect x="694" y="292" width="162" height="14" rx="7" fill="#0F172A"/>
  <rect x="944" y="290" width="90" height="18" rx="9" fill="#0EA5E9"/>
  <rect x="670" y="352" width="388" height="220" rx="24" fill="#F8FBFF"/>
  <rect x="700" y="388" width="120" height="12" rx="6" fill="#475569"/>
  <rect x="700" y="432" width="328" height="22" rx="11" fill="#DDEBFA"/>
  <rect x="700" y="470" width="296" height="22" rx="11" fill="#E9F7EF"/>
  <rect x="700" y="508" width="258" height="22" rx="11" fill="#FEF3E8"/>
  <rect x="700" y="546" width="220" height="22" rx="11" fill="#E0F2FE"/>
  <defs/>
</svg>
